# AST/ASF file generated using VICON BodyLanguage
# -----------------------------------------------
:version 1.10
:name VICON
:units
  mass 1.0
  length 0.45
  angle deg
:documentation
   .ast/.asf automatically generated from VICON data using
   VICON BodyBuilder and BodyLanguage model FoxedUp or BRILLIANT.MOD
:root
   order TX TY TZ RX RY RZ
   axis XYZ
   position 0 0 0  
   orientation 0 0 0 
:bonedata
  begin
     id 1 
     name lhipjoint
     direction 0.611804 -0.747784 0.257906 
     length 2.29243 
     axis 0 0 0  XYZ
  end
  begin
     id 2 
     name lfemur
     direction 0.34202 -0.939693 0  
     length 7.31159  
     axis 0 0 20  XYZ
    dof rx ry rz
    limits (-160.0 20.0)
           (-70.0 70.0)
           (-60.0 70.0)
  end
  begin
     id 3 
     name ltibia
     direction 0.34202 -0.939693 0   
     length 7.33391   
     axis 0 0 20   XYZ
    dof rx
    limits (-10.0 170.0)
  end
  begin
     id 4 
     name lfoot
     direction 0.122263 -0.335914 0.933924   
     length 1.76083   
     axis -90 7.62852e-016 20   XYZ
    dof rx rz
    limits (-45.0 90.0)
           (-70.0 20.0)
  end
  begin
     id 5 
     name ltoes
     direction 1.53533e-011 -4.2177e-011 1   
     length 0.879206   
     axis -90 7.62852e-016 20   XYZ
    dof rx
    limits (-90.0 20.0)
  end
  begin
     id 6 
     name rhipjoint
     direction -0.646469 -0.721248 0.248754   
     length 2.37677  
     axis 0 0 0  XYZ 
  end
  begin
     id 7 
     name rfemur
     direction -0.34202 -0.939693 0   
     length 7.18623   
     axis 0 0 -20   XYZ
    dof rx ry rz
    limits (-160.0 20.0)
           (-70.0 70.0)
           (-70.0 60.0)
  end
  begin
     id 8 
     name rtibia
     direction -0.34202 -0.939693 0   
     length 7.36567   
     axis 0 0 -20   XYZ
    dof rx
    limits (-10.0 170.0)
 end
 begin
     id 9 
     name rfoot
     direction -0.126681 -0.348054 0.928876   
     length 1.71902  
     axis -90 -7.62852e-016 -20   XYZ
    dof rx rz
    limits (-45.0 90.0)
           (-20.0 70.0)
  end
  begin
     id 10 
     name rtoes
     direction -1.53551e-011 -4.21898e-011 1   
     length 0.857792   
     axis -90 -7.62852e-016 -20   XYZ
    dof rx
    limits (-90.0 20.0)
  end
  begin
     id 11 
     name lowerback
     direction 0.0106509 0.999778 0.0181844   
     length 2.07668   
     axis 0 0 0   XYZ
    dof rx ry rz
    limits (-20.0 45.0)
           (-30.0 30.0)
           (-30.0 30.0)
  end
  begin
     id 12 
     name upperback
     direction -0.00456018 0.999989 -0.000590935   
     length 2.08011   
     axis 0 0 0   XYZ
    dof rx ry rz
    limits (-20.0 45.0)
           (-30.0 30.0)
           (-30.0 30.0)
  end
  begin
     id 13 
     name thorax
     direction -0.00910382 0.999916 -0.00923765   
     length 2.07397   
     axis 0 0 0   XYZ
    dof rx ry rz
    limits (-20.0 45.0)
           (-30.0 30.0)
           (-30.0 30.0)
  end
  begin
     id 14 
     name lowerneck
     direction 0.00171967 0.99778 0.0665733   
     length 1.67556   
     axis 0 0 0   XYZ
    dof rx ry rz
    limits (-20.0 45.0)
           (-30.0 30.0)
           (-30.0 30.0)
  end
  begin
     id 15 
     name upperneck
     direction -0.0143166 0.991302 -0.130828   
     length 1.68462   
     axis 0 0 0   XYZ
    dof rx ry rz
    limits (-20.0 45.0)
           (-30.0 30.0)
           (-30.0 30.0)
  end
  begin
     id 16
     name head
     direction -0.00606378 0.998665 -0.0512995  
     length 1.69269  
     axis 0 0 0   XYZ
    dof rx ry rz
    limits (-20.0 45.0)
           (-30.0 30.0)
           (-30.0 30.0)
  end
  begin
     id 17 
     name lclavicle
     direction 0.9638 0.179341 0.197297  
     length 4.12888  
     axis 0 0 0   XYZ
    dof ry rz
    limits (-20.0 10.0)
           (0.0 20.0)
  end
  begin
     id 18 
     name lhumerus
     direction 1 -4.48972e-011 -2.47351e-027   
     length 5.01834   
     axis -180 -30 -90   XYZ
    dof rx ry rz
    limits (-60.0 90.0)
           (-90.0 90.0)
           (-90.0 90.0)
  end
  begin
     id 19
     name lradius
     direction 1 -4.48965e-011 1.51591e-026   
     length 3.4869   
     axis -180 -30 -90   XYZ
    dof rx
    limits (-10.0 170.0)
  end
  begin
     id 20
     name lwrist
     direction 1 -4.48957e-011 2.70032e-026   
     length 1.74345   
     axis -1.81515e-014 90 90   XYZ
    dof ry
    limits (-180.0 0.0)
 end
  begin
     id 21 
     name lhand
     direction 1 -4.48951e-011 5.40064e-026   
     length 0.76799   
     axis -3.44607e-014 90 90   XYZ
    dof rx rz
    limits (-90.0 90.0)
           (-45.0 45.0)
  end
  begin
     id 22 
     name lfingers
     direction 1 -4.48971e-011 1.08013e-025   
     length 0.619174   
     axis -6.89214e-014 90 90   XYZ
    dof rx
    limits (0.0 90.0)
  end
  begin
     id 23
     name lthumb
     direction 0.707107 -6.34931e-011 0.707107   
     length 0.889013   
     axis -90 45 2.85299e-015   XYZ
    dof rx rz
    limits (-45.0 45.0)
           (-45.0 45.0)
  end
  begin
     id 24 
     name rclavicle
     direction -0.961409 0.252588 0.109054   
     length 4.04305  
     axis 0 0 0   XYZ 
    dof ry rz
    limits (-10.0 20.0)
           (-20.0 0.0)
  end
  begin
     id 25 
     name rhumerus
     direction -1 -4.4897e-011 1.33872e-017  
     length 4.70164   
     axis -180 30 90   XYZ
    dof rx ry rz
    limits (-90.0 60.0)
           (-90.0 90.0)
           (-90.0 90.0)
  end
  begin
     id 26 
     name rradius
     direction -1 -4.48954e-011 1.83844e-026   
     length 3.49911   
     axis -180 30 90   XYZ
    dof rx
    limits (-10.0 170.0)
  end
  begin
     id 27 
     name rwrist
     direction -1 -4.49008e-011 2.70032e-026   
     length 1.74955   
     axis -1.81515e-014 -90 -90   XYZ
    dof ry
    limits (-180.0 0.0)
  end
  begin
     id 28
     name rhand
     direction -1 -4.48916e-011 5.40064e-026   
     length 0.739335   
     axis -3.44607e-014 -90 -90   XYZ
    dof rx rz
    limits (-90.0 90.0)
           (-45.0 45.0)
  end
  begin
     id 29
     name rfingers
     direction -1 -4.48987e-011 1.08013e-025   
     length 0.596071   
     axis -6.89214e-014 -90 -90   XYZ
    dof rx
    limits (0.0 90.0)
  end
  begin
     id 30
     name rthumb
     direction -0.707107 -6.34935e-011 0.707107   
     length 0.855843   
     axis -90 -45 -2.85299e-015   XYZ
    dof rx rz
    limits (-45.0 45.0)
           (-45.0 45.0)
  end
:hierarchy
  begin
    root lhipjoint rhipjoint lowerback
    lhipjoint lfemur
    lfemur ltibia
    ltibia lfoot
    lfoot ltoes
    rhipjoint rfemur
    rfemur rtibia
    rtibia rfoot
    rfoot rtoes
    lowerback upperback
    upperback thorax
    thorax lowerneck lclavicle rclavicle
    lowerneck upperneck
    upperneck head
    lclavicle lhumerus
    lhumerus lradius
    lradius lwrist
    lwrist lhand lthumb
    lhand lfingers
    rclavicle rhumerus
    rhumerus rradius
    rradius rwrist
    rwrist rhand rthumb
    rhand rfingers
  end

#!OML:ASF I:\salsa\salsa 7_09\Patient 1\Session 1\dancermale.ASF
:FULLY-SPECIFIED
:DEGREES
1036
root -2.40252 17.2212 6.51611 544.409 -235.599 534.06
lowerback -8.9413 4.88083 -0.498497
upperback -7.73012 6.74602 -8.12265
thorax -2.16155 3.37188 -7.75529
lowerneck -11.8557 3.98904 3.31032
upperneck 25.9248 6.38647 -3.47309
head 10.4652 3.03495 -0.963616
rclavicle -7.15625e-015 3.18055e-014
rhumerus 75.6902 0.934663 -8.79853
rradius 66.7392
rwrist -334.497
rhand -24.8419 19.0595
rfingers 7.12502
rthumb 1.66428 -10.9138
lclavicle -7.15625e-015 3.18055e-014
lhumerus -28.1378 -59.9266 121.339
lradius 105.677
lwrist 52.3265
lhand -7.35148 56.2952
lfingers 7.12502
lthumb 18.5328 -274.568
rfemur -5.16643 -11.2768 17.5762
rtibia 41.3918
rfoot -4.12553 -11.9996
rtoes 1.23247
lfemur -25.2464 0.21133 -17.051
ltibia 32.6417
lfoot -20.5091 8.97629
ltoes -2.09407
1037
root -2.34359 17.2329 6.46086 544.334 -237.766 534.512
lowerback -8.38807 5.03047 -0.888218
upperback -7.55244 6.95541 -8.06656
thorax -2.29984 3.49331 -7.49638
lowerneck -10.9154 4.11181 2.98556
upperneck 25.4757 6.51903 -2.95393
head 10.0924 3.15353 -0.733119
rclavicle -6.24184e-014 -2.54444e-014
rhumerus 73.3128 2.49961 -6.34609
rradius 67.6525
rwrist -336.064
rhand -23.834 19.0495
rfingers 7.12502
rthumb 2.63772 -10.9139
lclavicle -6.24184e-014 -2.54444e-014
lhumerus -28.7458 -59.8913 120.956
lradius 105.602
lwrist 51.7382
lhand -7.12202 56.0669
lfingers 7.12502
lthumb 18.7535 -274.817
rfemur -7.55651 -12.824 16.8859
rtibia 46.4572
rfoot -1.18958 -11.711
rtoes 8.40205
lfemur -24.3696 -2.36702 -17.7384
ltibia 31.4234
lfoot -19.9616 8.30423
ltoes -1.89368
1038
root -2.28608 17.2489 6.40627 544.376 -239.945 535.042
lowerback -7.80795 5.16425 -1.39786
upperback -7.37881 7.14197 -7.95355
thorax -2.48566 3.60663 -7.12041
lowerneck -10.8573 3.99758 2.96788
upperneck 25.7546 6.44366 -3.07397
head 10.1834 3.11474 -0.778859
rclavicle -2.70347e-014 -2.54444e-014
rhumerus 70.9122 3.91992 -3.82488
rradius 68.9172
rwrist -336.673
rhand -22.6771 19.2238
rfingers 7.12502
rthumb 3.75494 -10.7228
lclavicle -2.70347e-014 -2.54444e-014
lhumerus -29.3545 -59.8208 120.627
lradius 105.395
lwrist 51.1152
lhand -7.24658 56.2366
lfingers 7.12502
lthumb 18.6337 -274.636
rfemur -10.2183 -14.234 16.2803
rtibia 51.761
rfoot 1.91863 -11.6381
rtoes 14.1106
lfemur -23.5931 -4.72808 -18.5083
ltibia 30.3928
lfoot -19.5555 7.76509
ltoes -2.48607
1039
root -2.23096 17.2626 6.35092 544.31 -242.135 535.362
lowerback -7.40815 5.30034 -1.77143
upperback -7.15593 7.33094 -7.78776
thorax -2.5152 3.71802 -6.74566
lowerneck -11.177 3.92132 2.69564
upperneck 26.4491 6.40875 -2.84308
head 10.4805 3.10333 -0.640735
rclavicle -6.22196e-014 -9.54166e-015
rhumerus 68.4808 5.17291 -1.11076
rradius 70.6795
rwrist -338.257
rhand -20.5528 19.2707
rfingers 7.12502
rthumb 5.80611 -10.6298
lclavicle -6.22196e-014 -9.54166e-015
lhumerus -29.9779 -59.6201 120.287
lradius 105.128
lwrist 50.7367
lhand -7.64263 56.6457
lfingers 7.12502
lthumb 18.2527 -274.191
rfemur -13.0634 -15.2436 16.0305
rtibia 56.9099
rfoot 4.99999 -11.6707
rtoes 20.307
lfemur -23.0553 -6.36352 -19.1549
ltibia 29.7421
lfoot -19.5095 6.90546
ltoes -3.20849
1040
root -2.18675 17.2741 6.29921 544.362 -244.417 535.701
lowerback -6.95479 5.36385 -2.19912
upperback -7.05586 7.41468 -7.57984
thorax -2.73076 3.77663 -6.32553
lowerneck -10.8761 3.87995 2.54905
upperneck 26.8124 6.43342 -2.74226
head 10.5475 3.13183 -0.57863
rclavicle 4.27387e-014 -3.49861e-014
rhumerus 66.1319 6.63928 1.59578
rradius 72.9676
rwrist -341.884
rhand -16.6002 19.1548
rfingers 7.12502
rthumb 9.62113 -10.6055
lclavicle 4.27387e-014 -3.49861e-014
lhumerus -31.1246 -59.0535 120.322
lradius 104.887
lwrist 50.4016
lhand -8.20077 56.7626
lfingers 7.12502
lthumb 17.7156 -274.024
rfemur -16.0601 -15.8792 16.0276
rtibia 61.6783
rfoot 6.00377 -11.6801
rtoes 20.6714
lfemur -22.7388 -7.32416 -19.7334
ltibia 29.2891
lfoot -19.681 5.40341
ltoes -3.04017
1041
root -2.1479 17.2881 6.25201 544.571 -246.826 536.173
lowerback -6.4003 5.33049 -2.45996
upperback -6.93468 7.35754 -7.5044
thorax -2.95722 3.75776 -6.15804
lowerneck -10.4095 3.96087 2.58934
upperneck 26.8355 6.56249 -2.63614
head 10.466 3.22884 -0.540796
rclavicle -1.25234e-014 3.18055e-015
rhumerus 63.9519 8.16296 3.65259
rradius 75.5314
rwrist -346.669
rhand -11.2121 18.8267
rfingers 7.12502
rthumb 14.8161 -10.6236
lclavicle -1.25234e-014 3.18055e-015
lhumerus -32.0932 -58.4331 119.879
lradius 104.775
lwrist 50.1447
lhand -8.68185 56.6568
lfingers 7.12502
lthumb 17.2527 -274.089
rfemur -18.924 -16.1978 16.1011
rtibia 65.735
rfoot 6.497 -11.5867
rtoes 22.6072
lfemur -22.3515 -7.91018 -20.358
ltibia 28.6762
lfoot -19.868 3.47357
ltoes -3.30102
1042
root -2.10708 17.3051 6.20904 544.787 -249.389 536.588
lowerback -5.89411 5.21727 -2.42983
upperback -6.72292 7.19169 -7.54458
thorax -3.02075 3.67413 -6.26354
lowerneck -10.4607 4.13317 2.37642
upperneck 27.0859 6.74887 -2.08343
head 10.5447 3.36545 -0.280309
rclavicle -1.11319e-014 -3.18055e-014
rhumerus 61.8107 9.62484 5.20342
rradius 78.2964
rwrist -351.201
rhand -6.17308 18.3215
rfingers 7.12502
rthumb 19.666 -10.7037
lclavicle -1.11319e-014 -3.18055e-014
lhumerus -32.5773 -57.8659 118.755
lradius 104.801
lwrist 50.1184
lhand -8.72379 56.8886
lfingers 7.12502
lthumb 17.2123 -273.854
rfemur -21.5017 -16.0873 16.3386
rtibia 68.7164
rfoot 5.27644 -11.2585
rtoes 24.0573
lfemur -21.8166 -8.33306 -20.9639
ltibia 27.7168
lfoot -19.8476 1.46356
ltoes -4.46216
1043
root -2.06556 17.3251 6.17199 544.683 -252.048 536.592
lowerback -5.48858 5.13866 -2.25907
upperback -6.48878 7.07544 -7.58636
thorax -2.98434 3.61145 -6.43142
lowerneck -10.5005 4.21496 2.36883
upperneck 27.2337 6.80745 -1.73732
head 10.5947 3.43997 -0.144347
rclavicle -7.09661e-014 4.45278e-014
rhumerus 59.3323 11.1029 6.68045
rradius 81.3976
rwrist -354.907
rhand -2.58508 18.3348
rfingers 7.12502
rthumb 23.1121 -10.2989
lclavicle -7.09661e-014 4.45278e-014
lhumerus -33.2728 -57.4268 117.79
lradius 104.931
lwrist 50.28
lhand -8.32842 57.663
lfingers 7.12502
lthumb 17.5928 -273.113
rfemur -23.8885 -15.4368 16.829
rtibia 70.6967
rfoot 3.61996 -10.8553
rtoes 22.0789
lfemur -21.2031 -8.80291 -21.349
ltibia 26.4882
lfoot -19.6454 -0.64344
ltoes -5.1634
1044
root -2.02234 17.3502 6.14032 544.124 -254.8 536.064
lowerback -5.18724 5.13094 -2.06529
upperback -6.26803 7.05964 -7.60248
thorax -2.89608 3.59984 -6.56988
lowerneck -10.2111 4.1641 2.83714
upperneck 27.0457 6.70432 -1.92117
head 10.4907 3.43226 -0.309741
rclavicle 4.21423e-014 -7.31528e-014
rhumerus 56.4331 12.7614 7.99958
rradius 84.7381
rwrist -358.108
rhand 0.0277637 18.4441
rfingers 7.12502
rthumb 25.617 -9.85279
lclavicle 4.21423e-014 -7.31528e-014
lhumerus -34.2912 -57.1371 117.257
lradius 105.05
lwrist 50.4703
lhand -8.341 58.1324
lfingers 7.12502
lthumb 17.5807 -272.642
rfemur -26.0876 -14.3302 17.3569
rtibia 71.8466
rfoot 2.27777 -10.1704
rtoes 22.5603
lfemur -20.6468 -9.61573 -21.4883
ltibia 25.341
lfoot -19.5922 -2.78574
ltoes -5.09158
1045
root -1.97619 17.3807 6.11263 543.39 -257.608 535.334
lowerback -5.09505 5.08642 -1.98001
upperback -5.95201 7.01082 -7.50272
thorax -2.62156 3.57774 -6.49606
lowerneck -9.8817 4.15876 3.07385
upperneck 26.7249 6.68932 -2.04343
head 10.3213 3.44782 -0.406328
rclavicle -8.94531e-015 3.18055e-015
rhumerus 53.5788 14.5528 9.02194
rradius 88.1351
rwrist -361.314
rhand 1.80572 17.6738
rfingers 7.12502
rthumb 27.3188 -10.3668
lclavicle -8.94531e-015 3.18055e-015
lhumerus -34.7914 -56.739 116.654
lradius 105.028
lwrist 50.6485
lhand -9.08853 57.8651
lfingers 7.12502
lthumb 16.8612 -272.847
rfemur -28.0572 -13.009 17.7048
rtibia 72.155
rfoot 0.976947 -9.10229
rtoes 22.6738
lfemur -20.1429 -10.6818 -21.607
ltibia 24.3298
lfoot -19.6719 -4.77887
ltoes -5.30127
